<svg xmlns="http://www.w3.org/2000/svg" viewBox="0 0 300 600" width="300" height="600"><defs><linearGradient id="phoneGrad" x1="0%" y1="0%" x2="100%" y2="100%"><stop offset="0%" style="stop-color:#C8D5C0;stop-opacity:1"/><stop offset="100%" style="stop-color:#A8B898;stop-opacity:1"/></linearGradient><linearGradient id="camBarGrad" x1="0%" y1="0%" x2="0%" y2="100%"><stop offset="0%" style="stop-color:#2a2a2a"/><stop offset="100%" style="stop-color:#1a1a1a"/></linearGradient></defs><rect x="10" y="10" width="280" height="580" rx="35" ry="35" fill="url(#phoneGrad)" stroke="#98A888" stroke-width="1.5"/><rect x="10" y="60" width="280" height="90" rx="0" fill="url(#camBarGrad)"/><circle cx="95" cy="105" r="32" fill="#111"/><circle cx="95" cy="105" r="26" fill="#1a1a2e"/><circle cx="95" cy="105" r="18" fill="#0d0d1a"/><circle cx="85" cy="95" r="4" fill="#fff" opacity="0.3"/><circle cx="185" cy="105" r="28" fill="#111"/><circle cx="185" cy="105" r="22" fill="#1a1a2e"/><circle cx="185" cy="105" r="15" fill="#0d0d1a"/><circle cx="175" cy="95" r="3.5" fill="#fff" opacity="0.3"/><circle cx="235" cy="105" r="8" fill="#d4a017"/><circle cx="235" cy="105" r="5" fill="#f0c040"/><g transform="translate(150, 360) scale(2.2)"><path d="M17.64 9.2c0-.637-.057-1.251-.164-1.84H9v3.481h4.844c-.209 1.125-.843 2.078-1.796 2.717v2.258h2.908c1.702-1.567 2.684-3.875 2.684-6.615z" fill="#4285F4"/><path d="M9 18c2.43 0 4.467-.806 5.956-2.18l-2.908-2.259c-.806.54-1.837.86-3.048.86-2.344 0-4.328-1.584-5.036-3.711H.957v2.332C2.438 15.983 5.482 18 9 18z" fill="#34A853"/><path d="M3.964 10.71c-.18-.54-.282-1.117-.282-1.71s.102-1.17.282-1.71V4.958H.957C.347 6.173 0 7.548 0 9s.348 2.827.957 4.042l3.007-2.332z" fill="#FBBC05"/><path d="M9 3.58c1.321 0 2.508.454 3.44 1.345l2.582-2.58C13.463.891 11.426 0 9 0 5.482 0 2.438 2.017.957 4.958L3.964 7.29C4.672 5.163 6.656 3.58 9 3.58z" fill="#EA4335"/></g><rect x="15" y="155" width="270" height="400" rx="5" fill="#A8B898" opacity="0.2"/><rect x="288" y="200" width="8" height="60" rx="4" fill="#98A888"/><rect x="4" y="180" width="6" height="40" rx="3" fill="#98A888"/><rect x="4" y="230" width="6" height="40" rx="3" fill="#98A888"/></svg>
